# xmcd
#
# Track frame offsets:
#	150
#	12467
#	24735
#	37550
#	51027
#	63182
#	75730
#	88987
#	102147
#	114662
#	127362
#	139630
#	152925
#	165262
#	177600
#	191437
#	202672
#	212582
#	224042
#	233835
#	246437
#	257280
#	270607
#	280952
#	292565
#	304882
#	317127
#
# Disc length: 4404 seconds
# Revision: 3
# Processed by: cddbd v1.5.2PL0 Copyright (c) Steve Scherf et al.
# Submitted via: dBpowerAMP V12.0
#
DISCID=8011321b
DTITLE=Various Artist - Columbia Country Classics, Vol. 2: Honky Tonk Heroes
DYEAR=1946
DGENRE=Country
TTITLE0=Bob Wills and His Texas Playboys - Brain Cloudy Blues
TTITLE1=Floyd Tillman - Slipping Around
TTITLE2=Floyd Tillman - This Cold War With You
TTITLE3=Stuart Humblen - Remember Me (I'm the One Who Loves You)
TTITLE4=Floyd Tillman - I Love You So Much It Hurts
TTITLE5=George Morgan - Room Full of Roses
TTITLE6=Carl Smith - I Overlooked an Orchid (While Searching for a Rose)
TTITLE7=Little Jimmy Dickens - Country Boy
TTITLE8=Little Jimmy Dickens - Take an Old Cold Tater (And Wait)
TTITLE9=Carl Smith - Let Old Mother Nature Have Her Way
TTITLE10=Little Jimmy Dickens - A-Sleeping at the Foot of the Bed
TTITLE11=Lefty Frizzell - If You've Got the Money (I've Got the Time)
TTITLE12=Lefty Frizzell - I Love You a Thousand Ways
TTITLE13=Marty Robbins - I Couldn't Keep from Crying
TTITLE14=Lefty Frizzell - Always Late (With Your Kisses)
TTITLE15=Carl Smith - Hey Joe!
TTITLE16=Johnny Horton - Honky Tonk Man
TTITLE17=Ray Price - Crazy Arms
TTITLE18=Marty Robbins - Knee Deep in the Blues
TTITLE19=Ray Price - Invitation to the Blues
TTITLE20=Charlie Walker - Pick Me Up on Your Way Down
TTITLE21=Ray Price - Heartaches by the Number
TTITLE22=Stonewall Jackson - Why I'm Walking
TTITLE23=Charlie Walker - Who Will Buy the Wine?
TTITLE24=Carl Butler - Honky Tonkitis
TTITLE25=Ray Price - Heart Over Mind
TTITLE26=Carl Butler - Don't Let Me Cross Over
EXTD=
EXTT0=
EXTT1=
EXTT2=
EXTT3=
EXTT4=
EXTT5=
EXTT6=
EXTT7=
EXTT8=
EXTT9=
EXTT10=
EXTT11=
EXTT12=
EXTT13=
EXTT14=
EXTT15=
EXTT16=
EXTT17=
EXTT18=
EXTT19=
EXTT20=
EXTT21=
EXTT22=
EXTT23=
EXTT24=
EXTT25=
EXTT26=
PLAYORDER=
